<svg width="987" height="325" viewBox="0 0 987 325" fill="none" xmlns="http://www.w3.org/2000/svg">
<path fill-rule="evenodd" clip-rule="evenodd" d="M166.23 324.841C166.23 324.841 15.5188 115.416 304.923 14.1704C293.366 8.6234 125.895 -43.3886 98.2718 94.6114C154.211 41.9114 197.495 39.0764 203.678 37.7474C167.214 54.1014 102.144 84.8474 66.3778 186.147C23.6718 161.933 9.91876 88.0224 12.2878 53.0024C-1.29724 93.2254 -41.4602 241.279 166.23 324.841ZM73.6358 54.0344C87.9548 58.4574 95.4038 78.3194 90.2738 98.3984C85.1438 118.477 69.3738 131.169 55.0578 126.747C40.7418 122.325 33.2908 102.462 38.4208 82.3834C43.5508 62.3044 59.3178 49.6114 73.6358 54.0344Z" fill="white"/>
<path d="M222.498 270.686C210.861 270.686 200.65 267.916 191.866 262.377C183.138 256.838 176.312 249.089 171.389 239.13C166.521 229.171 164.088 217.534 164.088 204.218C164.088 190.791 166.521 179.069 171.389 169.054C176.312 159.04 183.138 151.263 191.866 145.724C200.65 140.185 210.861 137.415 222.498 137.415C234.136 137.415 244.318 140.185 253.046 145.724C261.83 151.263 268.656 159.04 273.524 169.054C278.447 179.069 280.909 190.791 280.909 204.218C280.909 217.534 278.447 229.171 273.524 239.13C268.656 249.089 261.83 256.838 253.046 262.377C244.318 267.916 234.136 270.686 222.498 270.686ZM222.498 252.894C231.338 252.894 238.611 250.628 244.318 246.096C250.025 241.564 254.249 235.606 256.991 228.22C259.732 220.835 261.103 212.834 261.103 204.218C261.103 195.602 259.732 187.574 256.991 180.132C254.249 172.691 250.025 166.677 244.318 162.089C238.611 157.501 231.338 155.207 222.498 155.207C213.658 155.207 206.385 157.501 200.678 162.089C194.971 166.677 190.747 172.691 188.006 180.132C185.264 187.574 183.893 195.602 183.893 204.218C183.893 212.834 185.264 220.835 188.006 228.22C190.747 235.606 194.971 241.564 200.678 246.096C206.385 250.628 213.658 252.894 222.498 252.894ZM330.948 96.1251V268H311.142V96.1251H330.948ZM448.462 215.296V139.094H468.268V268H448.462V246.18H447.119C444.098 252.726 439.398 258.293 433.02 262.881C426.642 267.413 418.585 269.678 408.85 269.678C400.793 269.678 393.632 267.916 387.365 264.391C381.099 260.811 376.176 255.439 372.595 248.278C369.014 241.061 367.224 231.969 367.224 221.003V139.094H387.03V219.66C387.03 229.06 389.659 236.557 394.919 242.152C400.234 247.747 407.004 250.544 415.228 250.544C420.152 250.544 425.159 249.285 430.25 246.767C435.398 244.25 439.706 240.389 443.174 235.186C446.699 229.983 448.462 223.353 448.462 215.296ZM524.349 190.455V268H504.543V139.094H523.678V159.235H525.356C528.378 152.689 532.965 147.43 539.12 143.458C545.274 139.43 553.219 137.415 562.954 137.415C571.682 137.415 579.319 139.206 585.865 142.786C592.411 146.311 597.502 151.682 601.139 158.9C604.776 166.061 606.594 175.125 606.594 186.091V268H586.788V187.434C586.788 177.307 584.159 169.418 578.899 163.767C573.64 158.06 566.423 155.207 557.247 155.207C550.925 155.207 545.274 156.578 540.295 159.319C535.371 162.061 531.483 166.061 528.629 171.32C525.776 176.58 524.349 182.958 524.349 190.455ZM645.472 268V96.1251H749.201V114.588H666.285V172.663H743.83V191.126H666.285V249.537H750.544V268H645.472ZM784.029 268V139.094H803.163V158.564H804.506C806.856 152.186 811.108 147.011 817.263 143.038C823.417 139.066 830.355 137.08 838.076 137.08C839.53 137.08 841.349 137.108 843.531 137.164C845.713 137.22 847.363 137.303 848.482 137.415V157.557C847.811 157.389 846.272 157.137 843.866 156.802C841.516 156.41 839.027 156.214 836.397 156.214C830.131 156.214 824.536 157.529 819.612 160.159C814.745 162.732 810.884 166.313 808.031 170.901C805.234 175.433 803.835 180.608 803.835 186.427V268H784.029ZM909.893 271.021C901.724 271.021 894.311 269.483 887.653 266.405C880.995 263.272 875.708 258.768 871.792 252.894C867.875 246.963 865.917 239.802 865.917 231.409C865.917 224.024 867.372 218.038 870.281 213.45C873.19 208.806 877.079 205.169 881.946 202.54C886.814 199.91 892.185 197.952 898.06 196.665C903.99 195.322 909.949 194.259 915.935 193.476C923.768 192.469 930.118 191.714 934.986 191.21C939.909 190.651 943.49 189.728 945.728 188.441C948.022 187.154 949.169 184.916 949.169 181.727V181.055C949.169 172.775 946.903 166.341 942.371 161.753C937.895 157.165 931.098 154.871 921.978 154.871C912.523 154.871 905.109 156.942 899.738 161.082C894.367 165.222 890.591 169.642 888.409 174.342L869.61 167.628C872.967 159.795 877.443 153.696 883.037 149.332C888.688 144.912 894.843 141.835 901.501 140.101C908.214 138.311 914.816 137.415 921.306 137.415C925.447 137.415 930.202 137.919 935.573 138.926C941 139.877 946.232 141.863 951.267 144.885C956.358 147.906 960.583 152.466 963.94 158.564C967.296 164.662 968.975 172.831 968.975 183.07V268H949.169V250.544H948.162C946.819 253.341 944.581 256.335 941.448 259.524C938.315 262.713 934.147 265.426 928.944 267.664C923.74 269.902 917.39 271.021 909.893 271.021ZM912.914 253.229C920.747 253.229 927.349 251.691 932.72 248.614C938.147 245.537 942.231 241.564 944.973 236.697C947.77 231.829 949.169 226.71 949.169 221.339V203.211C948.33 204.218 946.483 205.141 943.63 205.981C940.833 206.764 937.588 207.463 933.895 208.079C930.258 208.638 926.706 209.142 923.237 209.589C919.824 209.981 917.054 210.317 914.928 210.596C909.781 211.268 904.969 212.359 900.494 213.869C896.074 215.324 892.493 217.534 889.751 220.499C887.066 223.409 885.723 227.381 885.723 232.417C885.723 239.298 888.269 244.501 893.36 248.026C898.507 251.495 905.025 253.229 912.914 253.229Z" fill="white"/>
</svg>
